<svg xmlns="http://www.w3.org/2000/svg" viewBox="0 0 64 64" width="64" height="64">
  <defs>
    <linearGradient id="grad1" x1="0%" y1="0%" x2="100%" y2="100%">
      <stop offset="0%" style="stop-color:#FF6B35;stop-opacity:1" />
      <stop offset="100%" style="stop-color:#FF8E53;stop-opacity:1" />
    </linearGradient>
  </defs>
  
  <!-- Background circle -->
  <circle cx="32" cy="32" r="30" fill="url(#grad1)" stroke="#fff" stroke-width="2"/>
  
  <!-- Wanderlust W with airplane -->
  <g transform="translate(12, 20)">
    <!-- W letter -->
    <path d="M5 4 L10 20 L15 8 L20 20 L25 4 L22 4 L19 16 L15 6 L11 16 L8 4 Z" 
          fill="white" stroke="none"/>
    
    <!-- Airplane path -->
    <path d="M30 8 Q35 6 38 10" stroke="white" stroke-width="1.5" fill="none"/>
    
    <!-- Small airplane -->
    <g transform="translate(35, 8) scale(0.8)">
      <path d="M0 0 L4 -1 L6 1 L4 2 L0 1 Z" fill="white"/>
      <path d="M1 -1 L1 -3 L3 -2 Z" fill="white"/>
      <path d="M1 2 L1 4 L3 3 Z" fill="white"/>
    </g>
  </g>
</svg>
